Coordinates
version=1
nRows=24
nColumns=26
inDegrees=yes

Units are S.I. units (second, meters, Newtons, ...)
Angles are in degrees.

endheader
time	pelvis_tilt	pelvis_list	pelvis_rotation	pelvis_tx	pelvis_ty	pelvis_tz	hip_flexion_r	hip_adduction_r	hip_rotation_r	knee_angle_r	knee_angle_r_beta	ankle_angle_r	subtalar_angle_r	mtp_angle_r	hip_flexion_l	hip_adduction_l	hip_rotation_l	knee_angle_l	knee_angle_l_beta	ankle_angle_l	subtalar_angle_l	mtp_angle_l	lumbar_extension	lumbar_bending	lumbar_rotation
     45.63316327	    -11.23498400	      3.20312917	     -0.10910675	      0.14002068	      0.92333578	      0.25272804	    -10.40605422	      0.64000240	      4.18501283	     42.47576801	     42.47576801	    -18.92847732	    -22.00780783	      0.00000000	     31.54264480	      5.48208280	      9.50106085	     11.78931134	     11.78931134	      1.60817023	     -1.59675584	      0.00000000	     -2.30603600	     -7.04078443	     17.05818867
     45.64316327	    -10.44254831	      2.95929819	      1.02572257	      0.14127746	      0.92048687	      0.25110839	    -10.48905673	      1.01125758	      3.02900243	     47.53728910	     47.53728910	    -18.75456747	    -23.82038730	      0.00000000	     30.48357425	      6.07585889	     10.37191965	     11.16164036	     11.16164036	      2.69889309	     -0.19463423	      0.00000000	     -3.32715914	     -6.95415741	     16.06105286
     45.65316327	     -9.30713597	      2.33904164	      1.85058560	      0.14200250	      0.91737687	      0.25045080	    -10.66143414	      1.89685058	      2.54212871	     52.71057658	     52.71057658	    -18.72856100	    -25.04156946	      0.00000000	     29.28117337	      6.14048655	     10.91669396	     11.61747704	     11.61747704	      3.01758676	      0.13188858	      0.00000000	     -4.89382430	     -6.37627126	     15.46758683
     45.66316327	     -8.87522674	      1.94151790	      2.94145586	      0.14215370	      0.91171282	      0.24972683	     -9.71121156	      2.45727994	      1.48460877	     58.46692359	     58.46692359	    -18.38688735	    -26.30697776	      0.00000000	     29.33880122	      6.52746763	     10.54338321	     13.62513402	     13.62513402	      3.50730558	      0.12097950	      0.00000000	     -5.58448528	     -6.20148744	     14.47513379
     45.67316327	     -8.29669581	      1.52638912	      3.79885559	      0.14222900	      0.90532469	      0.24928374	     -8.75305766	      3.00979754	      0.76603674	     64.23225672	     64.23225672	    -17.43773822	    -26.59669201	      0.00000000	     29.27807424	      6.64969599	      9.37736607	     16.21244071	     16.21244071	      3.79852090	     -0.01771193	      0.00000000	     -6.44651842	     -5.96314065	     13.89268079
     45.68316327	     -7.67682071	      1.37824736	      4.63554399	      0.14217768	      0.89820416	      0.24906707	     -7.71982596	      3.12184822	     -0.18403791	     69.92968048	     69.92968048	    -16.45022175	    -26.58965309	      0.00000000	     29.01499369	      6.96075811	      8.44812745	     18.97249596	     18.97249596	      3.35227887	     -1.00120984	      0.00000000	     -7.41214827	     -6.07635016	     13.27644310
     45.69316327	     -7.34369417	      1.83939966	      5.46573033	      0.14147255	      0.89039143	      0.24848075	     -6.21399846	      2.26600976	     -1.33199691	     75.73207967	     75.73207967	    -14.83586616	    -26.01240929	      0.00000000	     29.11796366	      7.98619547	      7.68081450	     22.39564268	     22.39564268	      1.24238473	     -3.68599501	      0.00000000	     -8.23699474	     -6.95204345	     12.45399787
     45.70316327	     -7.13447450	      2.85805349	      6.29190408	      0.14043920	      0.88169276	      0.24703613	     -4.55715114	      0.32657788	     -2.62899396	     81.45551358	     81.45551358	    -12.90267539	    -24.89516773	      0.00000000	     28.94989435	      9.92403907	      7.98667817	     26.11911168	     26.11911168	      2.89608727	     -5.97961079	      0.00000000	     -9.07831896	     -8.32024100	     11.45679133
     45.71316327	     -7.13443875	      3.68491048	      6.99601526	      0.13863424	      0.87175406	      0.24558683	     -2.47140503	     -1.58031744	     -3.55774815	     87.18431116	     87.18431116	    -10.59656417	    -23.37031199	      0.00000000	     29.62207220	     11.40857998	      6.38326683	     31.74555979	     31.74555979	      9.50979536	     -4.01726874	      0.00000000	     -9.72994885	     -9.40818633	     10.49811836
     45.72316327	     -7.59205944	      3.74521874	      7.66005484	      0.13561289	      0.86094787	      0.24512513	      0.54715937	     -2.58906922	     -4.17145554	     92.72255116	     92.72255116	     -9.26021452	    -22.77940329	      0.00000000	     31.17889432	     12.13433706	      5.60600426	     37.20702124	     37.20702124	     13.36225536	     -4.44089938	      0.00000000	     -9.93036346	     -9.71433119	      9.58975519
     45.73316327	     -8.22086190	      3.46747043	      8.20728860	      0.13146375	      0.85101967	      0.24522453	      4.18319536	     -3.12544357	     -4.38766444	     97.88468671	     97.88468671	     -8.26353771	    -22.33399276	      0.00000000	     32.68971941	     12.44823431	      5.85636689	     42.29202954	     42.29202954	     16.24734317	     -4.88554381	      0.00000000	    -10.04345431	     -9.72133842	      8.63605956
     45.74316327	     -9.69427248	      3.20439633	      8.67499034	      0.12703038	      0.84192466	      0.24582437	      9.14765362	     -3.75307291	     -4.27605178	    102.67241070	    102.67241070	     -7.05183132	    -21.61191261	      0.00000000	     34.62163710	     12.39497338	      5.78213802	     46.54251076	     46.54251076	     20.38396989	     -3.68043552	      0.00000000	     -9.25011756	     -9.96151916	      7.84486482
     45.75316327	    -11.72486674	      3.09999102	      9.02176882	      0.12221023	      0.83439694	      0.24665026	     15.11842392	     -4.57650207	     -3.69784837	    106.93709429	    106.93709429	     -5.77217234	    -20.68594719	      0.00000000	     36.45571389	     12.47970789	      5.78279235	     49.35673072	     49.35673072	     22.77137184	     -2.75402760	      0.00000000	     -7.88202350	    -10.48618160	      7.27649748
     45.76316327	    -12.92511810	      3.73796733	      8.89753627	      0.11879920	      0.83020946	      0.24776482	     20.13378687	     -5.83063572	     -2.34082588	    110.15504481	    110.15504481	     -4.74387194	    -19.82967664	      0.00000000	     36.49380850	     12.81177476	      5.14070534	     50.74063816	     50.74063816	     24.65039125	     -1.86685569	      0.00000000	     -7.39566879	    -11.70616246	      7.09596542
     45.77316327	    -13.00984419	      4.45105122	      8.47040618	      0.11729578	      0.82977675	      0.24902041	     23.69207923	     -6.66481303	     -0.74590153	    111.98595058	    111.98595058	     -3.99906114	    -19.47693586	      0.00000000	     34.53554157	     12.82774806	      4.42007286	     50.92496357	     50.92496357	     26.38901622	     -0.78713960	      0.00000000	     -7.83484195	    -12.74263081	      7.11267920
     45.78316327	    -12.37622318	      4.73638908	      8.05538143	      0.11707665	      0.83218976	      0.24966246	     26.22319088	     -6.85701676	      0.53414366	    112.59728656	    112.59728656	     -2.99516980	    -19.00018162	      0.00000000	     31.20311932	     12.53065563	      4.38807140	     50.14056180	     50.14056180	     27.58434040	     -0.07087966	      0.00000000	     -8.77062224	    -12.94160196	      6.82330155
     45.79316327	    -11.70138438	      4.58353688	      7.68103075	      0.11723847	      0.83635447	      0.25017112	     28.60826891	     -6.57594140	      1.35132203	    112.26139285	    112.26139285	     -2.35352746	    -18.93748716	      0.00000000	     27.41050510	     11.96057827	      4.94848651	     48.51684091	     48.51684091	     28.22672970	      0.27039421	      0.00000000	     -9.53296355	    -12.47129546	      6.34511039
     45.80316327	    -11.97819136	      3.95570294	      7.42140276	      0.11680795	      0.84055429	      0.25039493	     32.05004161	     -5.86132908	      1.85677176	    111.32502742	    111.32502742	     -1.95442280	    -18.99251798	      0.00000000	     24.61518407	     11.03910075	      5.61469738	     46.52969663	     46.52969663	     28.03015794	      0.50881593	      0.00000000	     -9.04234622	    -11.48177786	      5.38187568
     45.81316327	    -11.94657935	      3.38043323	      7.03651436	      0.11750847	      0.84682517	      0.25044204	     34.65168084	     -5.06197848	      2.22201757	    109.34014158	    109.34014158	     -2.17906953	    -19.58130243	      0.00000000	     20.83291806	     10.10485004	      6.48665112	     43.26713198	     43.26713198	     27.41153272	      0.41825766	      0.00000000	     -8.79093984	    -10.44286141	      4.78233281
     45.82316327	    -12.39176181	      2.83328097	      6.57321709	      0.11807745	      0.85352214	      0.25047324	     37.51008892	     -4.23138757	      2.56278445	    106.76042256	    106.76042256	     -2.28416932	    -20.32008415	      0.00000000	     17.42652893	      9.19102457	      7.21200241	     39.42329568	     39.42329568	     25.56428958	      0.18607401	      0.00000000	     -7.89703661	     -9.44230154	      4.00050947
     45.83316327	    -12.96172257	      2.19311869	      6.12960988	      0.11924826	      0.86096530	      0.25071492	     40.05712949	     -3.22082522	      2.71516980	    103.45790237	    103.45790237	     -2.19436172	    -20.90055413	      0.00000000	     14.16500442	      8.15433474	      7.87796791	     35.36394903	     35.36394903	     22.65528456	     -0.19602707	      0.00000000	     -6.72794191	     -8.36036699	      3.22708299
     45.84316327	    -13.37319175	      1.55368463	      5.56752991	      0.12132599	      0.86914774	      0.25078965	     41.89671209	     -2.14207486	      2.80316145	     99.42911433	     99.42911433	     -1.55801150	    -21.30259879	      0.00000000	     10.85214556	      7.06711875	      8.14757317	     31.28274379	     31.28274379	     18.61578745	     -0.68117966	      0.00000000	     -5.63319854	     -7.15168652	      2.44308445
     45.85316327	    -13.46105728	      1.00811976	      4.97192475	      0.12402039	      0.87800655	      0.25104494	     42.91609666	     -1.01631175	      2.92895588	     94.79935406	     94.79935406	     -0.94787421	    -21.54156410	      0.00000000	      7.44111481	      6.06535938	      8.23984440	     27.43779970	     27.43779970	     13.64881396	     -1.14523401	      0.00000000	     -4.83443730	     -6.09542257	      1.68018796
     45.86316327	    -13.39777238	      0.30902945	      4.35198940	      0.12671913	      0.88672944	      0.25138449	     43.41931029	      0.30083043	      2.93376849	     89.62647725	     89.62647725	     -0.63261768	    -21.76153563	      0.00000000	      4.28245989	      4.88874241	      7.82541752	     24.06315693	     24.06315693	      7.92852936	     -1.64124693	      0.00000000	     -4.20762711	     -4.86704028	      0.98815598
